<?xml version="1.0" standalone="yes"?>
<svg xmlns="http://www.w3.org/2000/svg" width="385" height="385">
<path style="fill:#fcfdfd; stroke:none;" d="M0 0L0 385L385 385L385 0L0 0z"/>
<path style="fill:#9fb4d2; stroke:none;" d="M215 27L216 61L217 61C217 52.175 220.394 34.1198 215 27M210 28L210 29L213 29L210 28z"/>
<path style="fill:#657ba1; stroke:none;" d="M213 28L214 29L213 28z"/>
<path style="fill:#285396; stroke:none;" d="M214 28L203 30L198 31L193 32L188 33C188 36.4229 184.443 34.7073 182 34L171 36C171 39.5034 158.577 39.659 155 39L150 40L150 41L152 41L152 42L145 41C145 44.1828 142.385 42.6903 140 42L129 44C129 47.183 126.385 45.6903 124 45L108 48L103 49L98 50L92 51L76 54C76 57.1829 73.3848 55.6903 71 55C71 58.1829 68.3848 56.6903 66 56L60 57L55 58C55 61.1828 52.3848 59.6903 50 59L34 62C34 65.423 30.4434 63.7073 28 63C28 66.0852 25.4422 64.4499 23 64L22 71L21 71L21 65L20 65L20 319L21 319L21 316L22 316L23 321C26.0732 319.976 28.7637 318.945 28 322C33.2441 320.86 39.7197 321.631 44 325C47.0732 323.976 49.7637 322.945 49 326L55 327C60.322 325.843 66.7033 326.482 71 330C74.0732 328.976 76.7637 327.945 76 331C80.2136 329.595 92.7423 331.031 92 334C95.7338 332.755 103.782 332.873 103 336C106.582 334.806 113.745 335.018 113 338C116.133 336.956 119.805 335.782 119 339C122.073 337.976 124.764 336.945 124 340C127.699 338.767 134.812 338.75 134 342C137.133 340.956 140.805 339.782 140 343C143.699 341.767 150.812 341.75 150 345L168 346L168 347L166 347L166 348L173 347L173 348L171 348L171 349C174.802 348.366 182.958 347.169 182 351C185.073 349.976 187.764 348.945 187 352C190.815 350.728 198.852 350.591 198 354C201.073 352.976 203.764 351.945 203 355L210 354L210 355L208 355L208 356L215 355L215 323L305 323L357 323L356 321L359 322L365 309L365 137L365 90L366 72L352.576 61.7531L322 61L256 61L216 62L214 28z"/>
<path style="fill:#244172; stroke:none;" d="M215 28L215 61L216 61L215 28z"/>
<path style="fill:#9fb4d2; stroke:none;" d="M205.667 29.3333L206.333 29.6667L205.667 29.3333z"/>
<path style="fill:#657ba1; stroke:none;" d="M207.667 29.3333L208.333 29.6667L207.667 29.3333z"/>
<path style="fill:#285396; stroke:none;" d="M209 29L210 30L209 29z"/>
<path style="fill:#244172; stroke:none;" d="M208 30L208 31L213 30L208 30z"/>
<path style="fill:#9fb4d2; stroke:none;" d="M200.667 30.3333L201.333 30.6667L200.667 30.3333z"/>
<path style="fill:#657ba1; stroke:none;" d="M202 30L203 31L202 30z"/>
<path style="fill:#244172; stroke:none;" d="M205 30L206 31L205 30z"/>
<path style="fill:#9fb4d2; stroke:none;" d="M195.667 31.3333L196.333 31.6667L195.667 31.3333z"/>
<path style="fill:#657ba1; stroke:none;" d="M197 31L198 32L197 31z"/>
<path style="fill:#244172; stroke:none;" d="M199 31L199 32L203 32L199 31z"/>
<path style="fill:#9fb4d2; stroke:none;" d="M189 32L189 33L192 33L189 32z"/>
<path style="fill:#657ba1; stroke:none;" d="M192 32L193 33L192 32z"/>
<path style="fill:#244172; stroke:none;" d="M195 32L195 33L198 33L195 32z"/>
<path style="fill:#9fb4d2; stroke:none;" d="M184.667 33.3333L185.333 33.6667L184.667 33.3333z"/>
<path style="fill:#657ba1; stroke:none;" d="M186.667 33.3333L187.333 33.6667L186.667 33.3333z"/>
<path style="fill:#244172; stroke:none;" d="M190 33L190 34L193 34L190 33z"/>
<path style="fill:#9fb4d2; stroke:none;" d="M179.667 34.3333L180.333 34.6667L179.667 34.3333z"/>
<path style="fill:#657ba1; stroke:none;" d="M181 34L182 35L181 34z"/>
<path style="fill:#244172; stroke:none;" d="M183 34L183 35L189 35L183 34z"/>
<path style="fill:#9fb4d2; stroke:none;" d="M173.667 35.3333L174.333 35.6667L173.667 35.3333z"/>
<path style="fill:#657ba1; stroke:none;" d="M175.667 35.3333L176.333 35.6667L175.667 35.3333z"/>
<path style="fill:#244172; stroke:none;" d="M179 35L179 36L183 36L179 35z"/>
<path style="fill:#9fb4d2; stroke:none;" d="M168.667 36.3333L169.333 36.6667L168.667 36.3333z"/>
<path style="fill:#657ba1; stroke:none;" d="M170 36L171 37L170 36z"/>
<path style="fill:#244172; stroke:none;" d="M173 36L173 37L176 37L173 36z"/>
<path style="fill:#9fb4d2; stroke:none;" d="M163.667 37.3333L164.333 37.6667L163.667 37.3333z"/>
<path style="fill:#657ba1; stroke:none;" d="M165.667 37.3333L166.333 37.6667L165.667 37.3333z"/>
<path style="fill:#244172; stroke:none;" d="M168 37L168 38L172 38L168 37z"/>
<path style="fill:#9fb4d2; stroke:none;" d="M157.667 38.3333L158.333 38.6667L157.667 38.3333z"/>
<path style="fill:#657ba1; stroke:none;" d="M159.667 38.3333L160.333 38.6667L159.667 38.3333z"/>
<path style="fill:#285396; stroke:none;" d="M161 38L162 39L161 38z"/>
<path style="fill:#244172; stroke:none;" d="M157 39L157 40L166 39L157 39z"/>
<path style="fill:#9fb4d2; stroke:none;" d="M152.667 39.3333L153.333 39.6667L152.667 39.3333z"/>
<path style="fill:#657ba1; stroke:none;" d="M154 39L155 40L154 39z"/>
<path style="fill:#9fb4d2; stroke:none;" d="M147.667 40.3333L148.333 40.6667L147.667 40.3333z"/>
<path style="fill:#657ba1; stroke:none;" d="M149 40L150 41L149 40z"/>
<path style="fill:#244172; stroke:none;" d="M152 40L152 41L155 41L152 40z"/>
<path style="fill:#9fb4d2; stroke:none;" d="M141 41L141 42L144 42L141 41z"/>
<path style="fill:#657ba1; stroke:none;" d="M144 41L145 42L144 41z"/>
<path style="fill:#244172; stroke:none;" d="M147 41L147 42L152 42L147 41z"/>
<path style="fill:#9fb4d2; stroke:none;" d="M136.667 42.3333L137.333 42.6667L136.667 42.3333z"/>
<path style="fill:#657ba1; stroke:none;" d="M138.667 42.3333L139.333 42.6667L138.667 42.3333z"/>
<path style="fill:#244172; stroke:none;" d="M141 42L141 43L146 43L141 42z"/>
<path style="fill:#9fb4d2; stroke:none;" d="M131.667 43.3333L132.333 43.6667L131.667 43.3333z"/>
<path style="fill:#657ba1; stroke:none;" d="M133.667 43.3333L134.333 43.6667L133.667 43.3333z"/>
<path style="fill:#244172; stroke:none;" d="M136 43L136 44L141 44L136 43z"/>
<path style="fill:#9fb4d2; stroke:none;" d="M126.667 44.3333L127.333 44.6667L126.667 44.3333z"/>
<path style="fill:#657ba1; stroke:none;" d="M128 44L129 45L128 44z"/>
<path style="fill:#244172; stroke:none;" d="M131 44L131 45L134 45L131 44z"/>
<path style="fill:#9fb4d2; stroke:none;" d="M120.667 45.3333L121.333 45.6667L120.667 45.3333z"/>
<path style="fill:#657ba1; stroke:none;" d="M122.667 45.3333L123.333 45.6667L122.667 45.3333z"/>
<path style="fill:#244172; stroke:none;" d="M125 45L125 46L130 46L125 45z"/>
<path style="fill:#9fb4d2; stroke:none;" d="M115.667 46.3333L116.333 46.6667L115.667 46.3333z"/>
<path style="fill:#657ba1; stroke:none;" d="M117.667 46.3333L118.333 46.6667L117.667 46.3333z"/>
<path style="fill:#244172; stroke:none;" d="M120 46L120 47L124 47L120 46z"/>
<path style="fill:#9fb4d2; stroke:none;" d="M110 47L111 48L110 47z"/>
<path style="fill:#657ba1; stroke:none;" d="M111.667 47.3333L112.333 47.6667L111.667 47.3333z"/>
<path style="fill:#244172; stroke:none;" d="M115 47L115 48L118 48L115 47z"/>
<path style="fill:#9fb4d2; stroke:none;" d="M104.667 48.3333L105.333 48.6667L104.667 48.3333z"/>
<path style="fill:#657ba1; stroke:none;" d="M106.667 48.3333L107.333 48.6667L106.667 48.3333z"/>
<path style="fill:#244172; stroke:none;" d="M109 48L109 49L112 49L109 48z"/>
<path style="fill:#9fb4d2; stroke:none;" d="M99.6667 49.3333L100.333 49.6667L99.6667 49.3333z"/>
<path style="fill:#657ba1; stroke:none;" d="M101.667 49.3333L102.333 49.6667L101.667 49.3333z"/>
<path style="fill:#244172; stroke:none;" d="M104 49L104 50L108 50L104 49z"/>
<path style="fill:#9fb4d2; stroke:none;" d="M94.6667 50.3333L95.3333 50.6667L94.6667 50.3333z"/>
<path style="fill:#657ba1; stroke:none;" d="M96.6667 50.3333L97.3333 50.6667L96.6667 50.3333z"/>
<path style="fill:#244172; stroke:none;" d="M99 50L99 51L103 51L99 50z"/>
<path style="fill:#9fb4d2; stroke:none;" d="M88.6667 51.3333L89.3333 51.6667L88.6667 51.3333z"/>
<path style="fill:#657ba1; stroke:none;" d="M90.6667 51.3333L91.3333 51.6667L90.6667 51.3333z"/>
<path style="fill:#244172; stroke:none;" d="M94 51L95 52L94 51M96 51L96 52L99 52L96 51z"/>
<path style="fill:#9fb4d2; stroke:none;" d="M83.6667 52.3333L84.3333 52.6667L83.6667 52.3333z"/>
<path style="fill:#657ba1; stroke:none;" d="M85.6667 52.3333L86.3333 52.6667L85.6667 52.3333z"/>
<path style="fill:#244172; stroke:none;" d="M88 52L88 53L92 53L88 52z"/>
<path style="fill:#9fb4d2; stroke:none;" d="M78.6667 53.3333L79.3333 53.6667L78.6667 53.3333z"/>
<path style="fill:#657ba1; stroke:none;" d="M80.6667 53.3333L81.3333 53.6667L80.6667 53.3333z"/>
<path style="fill:#244172; stroke:none;" d="M83 53L83 54L86 54L83 53z"/>
<path style="fill:#9fb4d2; stroke:none;" d="M72 54L72 55L75 55L72 54z"/>
<path style="fill:#657ba1; stroke:none;" d="M75 54L76 55L75 54z"/>
<path style="fill:#244172; stroke:none;" d="M78 54L78 55L81 55L78 54z"/>
<path style="fill:#9fb4d2; stroke:none;" d="M67.6667 55.3333L68.3333 55.6667L67.6667 55.3333z"/>
<path style="fill:#657ba1; stroke:none;" d="M69.6667 55.3333L70.3333 55.6667L69.6667 55.3333z"/>
<path style="fill:#244172; stroke:none;" d="M72 55L72 56L77 56L72 55z"/>
<path style="fill:#9fb4d2; stroke:none;" d="M62.6667 56.3333L63.3333 56.6667L62.6667 56.3333z"/>
<path style="fill:#657ba1; stroke:none;" d="M64.6667 56.3333L65.3333 56.6667L64.6667 56.3333z"/>
<path style="fill:#244172; stroke:none;" d="M67 56L67 57L72 57L67 56z"/>
<path style="fill:#9fb4d2; stroke:none;" d="M57.6667 57.3333L58.3333 57.6667L57.6667 57.3333z"/>
<path style="fill:#657ba1; stroke:none;" d="M59 57L60 58L59 57z"/>
<path style="fill:#244172; stroke:none;" d="M61 57L61 58L66 58L61 57z"/>
<path style="fill:#9fb4d2; stroke:none;" d="M51.6667 58.3333L52.3333 58.6667L51.6667 58.3333z"/>
<path style="fill:#657ba1; stroke:none;" d="M53.6667 58.3333L54.3333 58.6667L53.6667 58.3333z"/>
<path style="fill:#244172; stroke:none;" d="M56 58L56 59L60 59L56 58z"/>
<path style="fill:#9fb4d2; stroke:none;" d="M46.6667 59.3333L47.3333 59.6667L46.6667 59.3333z"/>
<path style="fill:#657ba1; stroke:none;" d="M48.6667 59.3333L49.3333 59.6667L48.6667 59.3333z"/>
<path style="fill:#244172; stroke:none;" d="M51 59L51 60L56 60L51 59z"/>
<path style="fill:#9fb4d2; stroke:none;" d="M41 60L42 61L41 60z"/>
<path style="fill:#657ba1; stroke:none;" d="M42.6667 60.3333L43.3333 60.6667L42.6667 60.3333z"/>
<path style="fill:#244172; stroke:none;" d="M46 60L46 61L51 61L46 60z"/>
<path style="fill:#9fb4d2; stroke:none;" d="M35.6667 61.3333L36.3333 61.6667L35.6667 61.3333z"/>
<path style="fill:#657ba1; stroke:none;" d="M37.6667 61.3333L38.3333 61.6667L37.6667 61.3333z"/>
<path style="fill:#244172; stroke:none;" d="M216 61L217 62L216 61M220 61L221 62L220 61z"/>
<path style="fill:#657ba1; stroke:none;" d="M353.667 61.3333L354.333 61.6667L353.667 61.3333z"/>
<path style="fill:#9fb4d2; stroke:none;" d="M355 61L356 62L355 61M30.6667 62.3333L31.3333 62.6667L30.6667 62.3333z"/>
<path style="fill:#657ba1; stroke:none;" d="M32.6667 62.3333L33.3333 62.6667L32.6667 62.3333z"/>
<path style="fill:#244172; stroke:none;" d="M35 62L35 63L38 63L35 62M353 62L353 63L364 72L365 72C363.029 66.2199 358.954 63.0784 353 62z"/>
<path style="fill:#657ba1; stroke:none;" d="M356.667 62.3333L357.333 62.6667L356.667 62.3333z"/>
<path style="fill:#9fb4d2; stroke:none;" d="M24 63L24 64L27 64L24 63z"/>
<path style="fill:#657ba1; stroke:none;" d="M27 63L28 64L27 63z"/>
<path style="fill:#244172; stroke:none;" d="M29 63L29 64L35 64L29 63z"/>
<path style="fill:#657ba1; stroke:none;" d="M358 63L359 64L358 63z"/>
<path style="fill:#9fb4d2; stroke:none;" d="M359 63L360 64L359 63M20.6667 64.3333L21.3333 64.6667L20.6667 64.3333z"/>
<path style="fill:#657ba1; stroke:none;" d="M22 64L23 65L22 64z"/>
<path style="fill:#244172; stroke:none;" d="M25 64L25 65L29 65L25 64z"/>
<path style="fill:#657ba1; stroke:none;" d="M360 64L361 65L360 64z"/>
<path style="fill:#244172; stroke:none;" d="M21 65L21 71L22 71L21 65M23 65L24 66L23 65z"/>
<path style="fill:#657ba1; stroke:none;" d="M361 65L362 66L361 65M362 66L363 67L362 66z"/>
<path style="fill:#9fb4d2; stroke:none;" d="M363 67L364 68L363 67M364 68L365 69L364 68z"/>
<path style="fill:#657ba1; stroke:none;" d="M364 69L365 70L364 69z"/>
<path style="fill:#244172; stroke:none;" d="M361 70L362 71L361 70z"/>
<path style="fill:#9fb4d2; stroke:none;" d="M365 70L366 71L365 70z"/>
<path style="fill:#657ba1; stroke:none;" d="M365 71L366 72L365 71z"/>
<path style="fill:#244172; stroke:none;" d="M21.3333 72.6667L21.6667 73.3333L21.3333 72.6667M215 73C215 77.8603 212.532 92.7475 216.603 95.9722C221.988 100.237 240.214 97 247 97L330 97L330 109L247 109C240.214 109 221.988 105.763 216.603 110.028C212.653 113.157 214.743 127.747 216 132L217 132L216 110L331 110L331 96L216 96L216 74L352 74C341.258 69.4925 322.682 73 311 73L246 73C235.947 73 224.883 71.483 215 73M353 73L354 74L353 73M364 73C368.454 91.7074 365 114.777 365 134L365 259C365 275.605 371.382 308.08 358 320L358 321C371.622 314.495 366 285.731 366 273L366 127L366 87C366 82.7586 367.399 75.9698 364 73z"/>
<path style="fill:#9fb4d2; stroke:none;" d="M366 73L366 312L367 312L367 144L367 95L366 73z"/>
<path style="fill:#657ba1; stroke:none;" d="M216 74L217 75L216 74z"/>
<path style="fill:#9fb4d2; stroke:none;" d="M217 96L218 96L217 75L352 75L352 310L217 310L217 289L216 289L216 311L353 311L353 137L353 92C353 87.8748 354.662 78.9999 351.972 75.6034C349.975 73.0819 344.803 74.0002 342 74L314 74L243 74C237.154 74 222.29 71.3155 217.603 75.0278C213.728 78.097 215.774 91.8532 217 96z"/>
<path style="fill:#657ba1; stroke:none;" d="M352 74L353 75L352 74z"/>
<path style="fill:#fcfdfd; stroke:none;" d="M217 75L217 95L332 95L332 110L293 111L217 111L217 131L294 131L331 130L332 146L217 146L217 166L299 166C306.466 166 323.393 162.831 329.682 167.028C333.742 169.737 331.126 176.966 332 181L293 182L217 182L217 202L294 202L331 201L332 217L217 217L217 237L293 237L332 238C331.562 241.988 333.637 249.333 329.682 251.972C323.393 256.169 306.467 253 299 253L217 253L217 273L299 273C306.467 273 323.393 269.831 329.682 274.028C333.599 276.641 331.555 284.017 332 288L217 288L217 310L352 310L352 75L217 75z"/>
<path style="fill:#244172; stroke:none;" d="M353 76L353 306L354 306L354 141L354 95L353 76z"/>
<path style="fill:#285396; stroke:none;" d="M353 79L354 80L353 79z"/>
<path style="fill:#244172; stroke:none;" d="M21 80L21 144L22 144L22 100L21 80z"/>
<path style="fill:#657ba1; stroke:none;" d="M216 95L217 96L216 95M218.667 95.3333L219.333 95.6667L218.667 95.3333z"/>
<path style="fill:#9fb4d2; stroke:none;" d="M220 95L220 96L224 96L220 95z"/>
<path style="fill:#657ba1; stroke:none;" d="M224 95L224 96L328 96L296 95L224 95z"/>
<path style="fill:#9fb4d2; stroke:none;" d="M328 95L329 96L328 95z"/>
<path style="fill:#657ba1; stroke:none;" d="M329 95L330 96L329 95z"/>
<path style="fill:#9fb4d2; stroke:none;" d="M330 95L332 97L332 95L330 95M331.333 99.6667L331.667 100.333L331.333 99.6667M331 102L332 103L331 102M331 104L332 105L331 104M331 107L332 108L331 107M331 109L332 110L331 109z"/>
<path style="fill:#657ba1; stroke:none;" d="M216 110L217 111L216 110z"/>
<path style="fill:#9fb4d2; stroke:none;" d="M217 110L217 111L329 111L295 110L217 110z"/>
<path style="fill:#657ba1; stroke:none;" d="M329 110L330 111L329 110z"/>
<path style="fill:#9fb4d2; stroke:none;" d="M330 110L331 111L330 110M216 111L216 131L217 131L216 111M330 130L331 146L332 146L330 130z"/>
<path style="fill:#244172; stroke:none;" d="M220 131L220 132L328 132L295 131L220 131M329 131L330 144L247 144C240.214 144 221.988 140.763 216.603 145.028C212.579 148.215 214.712 163.642 216 168L217 168L216 145L331 145L329 131M153 134L153 135L167 135L153 134M168 133L168 134L176 134L168 133M177 133L178 134L177 133z"/>
<path style="fill:#657ba1; stroke:none;" d="M169 134L169 135L173 135L169 134z"/>
<path style="fill:#9fb4d2; stroke:none;" d="M173 134L173 135L176 137C176.951 134.493 175.348 134.294 173 134z"/>
<path style="fill:#244172; stroke:none;" d="M180 134L181 135L180 134M328 134L329 135L328 134z"/>
<path style="fill:#657ba1; stroke:none;" d="M155 135L155 136L159 136L155 135z"/>
<path style="fill:#9fb4d2; stroke:none;" d="M159 135L159 136L165 136L159 135z"/>
<path style="fill:#fcfdfd; stroke:none;" d="M154 136L140 219L138 219C137.987 199.192 130.901 178.336 126.789 159C125.843 154.55 125.155 141.768 120.686 139.603C116.858 137.749 103.846 138.51 101.43 142.318C97.6059 148.343 97.1087 159.059 95.5756 166C91.8848 182.71 85.142 200.853 85 218L84 218L72 142L54 143C55.8563 166.327 63.6107 190.051 68.1998 213C69.3317 218.66 69.8599 234.216 74.5887 237.821C77.5461 240.076 92.3187 241.022 94.3472 237.681C97.6668 232.215 97.8537 223.192 99.3742 217C103.517 200.128 108.631 182.343 110 165L111 165C111.142 182.116 117.581 200.343 121.35 217C122.907 223.881 123.369 233.518 126.703 239.721C128.844 243.705 145.787 245.656 149.272 242.971C154.445 238.988 155.574 222.217 157.127 216C163.618 190.001 173.875 161.7 176 135L154 136z"/>
<path style="fill:#244172; stroke:none;" d="M178 135L179 136L178 135M152 136L143.103 185L139 212L140 212L149.424 158L152 136M177 136L176 142L177 142L177 136M84 213L85 213L96.0031 161L101.728 140.603L122 138C117.378 136.061 103.651 135.842 99.8827 139.728C96.3359 143.385 96.2948 154.114 95.115 159C90.9816 176.119 84.1463 195.323 84 213M123 137L123 140L124 140L123 137z"/>
<path style="fill:#657ba1; stroke:none;" d="M153 137L154 138L153 137M176 137L177 138L176 137z"/>
<path style="fill:#285396; stroke:none;" d="M112 138L112 139L115 139L112 138z"/>
<path style="fill:#657ba1; stroke:none;" d="M115 138L115 139L118 139L115 138z"/>
<path style="fill:#9fb4d2; stroke:none;" d="M118 138L118 139L123 140L118 138M153.333 138.667L153.667 139.333L153.333 138.667z"/>
<path style="fill:#285396; stroke:none;" d="M176 138L177 139L176 138z"/>
<path style="fill:#657ba1; stroke:none;" d="M101 139L101 140L105 140L101 139z"/>
<path style="fill:#9fb4d2; stroke:none;" d="M105 139L105 140L110 140L105 139M175.333 139.667L175.667 140.333L175.333 139.667z"/>
<path style="fill:#244172; stroke:none;" d="M69 140C64.7445 141.258 56.892 139.477 53.6073 142.684C49.9839 146.221 54.4192 155.687 55 160L56 160L53 143L69 140z"/>
<path style="fill:#9fb4d2; stroke:none;" d="M101 140L102 141L101 140z"/>
<path style="fill:#285396; stroke:none;" d="M100 141L101 142L100 141z"/>
<path style="fill:#657ba1; stroke:none;" d="M123.333 141.667L123.667 142.333L123.333 141.667z"/>
<path style="fill:#244172; stroke:none;" d="M124 141L124 145L125 145L124 141z"/>
<path style="fill:#285396; stroke:none;" d="M152 141L153 142L152 141z"/>
<path style="fill:#657ba1; stroke:none;" d="M175 141L176 142L175 141z"/>
<path style="fill:#285396; stroke:none;" d="M57 142L57 143L60 143L57 142z"/>
<path style="fill:#657ba1; stroke:none;" d="M60 142L60 143L63 143L60 142z"/>
<path style="fill:#9fb4d2; stroke:none;" d="M63 142L63 143L68 143L63 142z"/>
<path style="fill:#657ba1; stroke:none;" d="M72.3333 142.667L72.6667 143.333L72.3333 142.667M100 142L101 143L100 142M152.333 142.667L152.667 143.333L152.333 142.667M53 143L53 146L54 146L53 143z"/>
<path style="fill:#9fb4d2; stroke:none;" d="M100.333 143.667L100.667 144.333L100.333 143.667M123.333 143.667L123.667 144.333L123.333 143.667z"/>
<path style="fill:#244172; stroke:none;" d="M175 143L174 150L175 150L175 143z"/>
<path style="fill:#9fb4d2; stroke:none;" d="M72.3333 144.667L72.6667 145.333L72.3333 144.667z"/>
<path style="fill:#244172; stroke:none;" d="M73 144L73 147L74 147L73 144z"/>
<path style="fill:#9fb4d2; stroke:none;" d="M152.333 144.667L152.667 145.333L152.333 144.667M174 144L175 145L174 144z"/>
<path style="fill:#285396; stroke:none;" d="M99 145L100 146L99 145z"/>
<path style="fill:#657ba1; stroke:none;" d="M174 145L175 146L174 145z"/>
<path style="fill:#285396; stroke:none;" d="M216 145L217 146L216 145z"/>
<path style="fill:#657ba1; stroke:none;" d="M217 145L217 146L329 146L295 145L217 145z"/>
<path style="fill:#285396; stroke:none;" d="M329.667 145.333L330.333 145.667L329.667 145.333M53 146L54 147L53 146z"/>
<path style="fill:#657ba1; stroke:none;" d="M99.3333 146.667L99.6667 147.333L99.3333 146.667M124.333 146.667L124.667 147.333L124.333 146.667z"/>
<path style="fill:#244172; stroke:none;" d="M125 146L127 159L128 159L125 146z"/>
<path style="fill:#285396; stroke:none;" d="M174 146L175 147L174 146z"/>
<path style="fill:#9fb4d2; stroke:none;" d="M216 146L216 167L331 167L331 177L332 177C331.998 161.114 316.499 166 304 166L217 166L216 146M54.3333 147.667L54.6667 148.333L54.3333 147.667z"/>
<path style="fill:#285396; stroke:none;" d="M151 147L152 148L151 147z"/>
<path style="fill:#657ba1; stroke:none;" d="M73.3333 148.667L73.6667 149.333L73.3333 148.667z"/>
<path style="fill:#244172; stroke:none;" d="M74 148L75 158L76 158L74 148z"/>
<path style="fill:#9fb4d2; stroke:none;" d="M99 148L100 149L99 148M124 148L125 149L124 148z"/>
<path style="fill:#657ba1; stroke:none;" d="M151 148L152 149L151 148z"/>
<path style="fill:#9fb4d2; stroke:none;" d="M173 148L174 149L173 148z"/>
<path style="fill:#657ba1; stroke:none;" d="M54 149L55 150L54 149z"/>
<path style="fill:#9fb4d2; stroke:none;" d="M151.333 149.667L151.667 150.333L151.333 149.667z"/>
<path style="fill:#657ba1; stroke:none;" d="M173.333 149.667L173.667 150.333L173.333 149.667z"/>
<path style="fill:#285396; stroke:none;" d="M54 150L55 151L54 150z"/>
<path style="fill:#9fb4d2; stroke:none;" d="M73.3333 150.667L73.6667 151.333L73.3333 150.667z"/>
<path style="fill:#657ba1; stroke:none;" d="M98.3333 150.667L98.6667 151.333L98.3333 150.667z"/>
<path style="fill:#285396; stroke:none;" d="M125 150L126 151L125 150z"/>
<path style="fill:#657ba1; stroke:none;" d="M125 151L126 152L125 151z"/>
<path style="fill:#244172; stroke:none;" d="M173 151L173 155L174 155L173 151M21 152L21 184L22 184L21 152z"/>
<path style="fill:#9fb4d2; stroke:none;" d="M55.3333 152.667L55.6667 153.333L55.3333 152.667M98.3333 152.667L98.6667 153.333L98.3333 152.667M125.333 152.667L125.667 153.333L125.333 152.667z"/>
<path style="fill:#285396; stroke:none;" d="M150 152L151 153L150 152z"/>
<path style="fill:#9fb4d2; stroke:none;" d="M172 152L173 153L172 152z"/>
<path style="fill:#285396; stroke:none;" d="M74 153L75 154L74 153z"/>
<path style="fill:#657ba1; stroke:none;" d="M150 153L151 154L150 153M172.333 153.667L172.667 154.333L172.333 153.667M55 154L56 155L55 154M74 154L75 155L74 154z"/>
<path style="fill:#285396; stroke:none;" d="M97 154L98 155L97 154M126 154L127 155L126 154z"/>
<path style="fill:#9fb4d2; stroke:none;" d="M150.333 154.667L150.667 155.333L150.333 154.667z"/>
<path style="fill:#285396; stroke:none;" d="M55 155L56 156L55 155z"/>
<path style="fill:#9fb4d2; stroke:none;" d="M74 155L74 158L75 158L74 155z"/>
<path style="fill:#657ba1; stroke:none;" d="M97 155L98 156L97 155M126.333 155.667L126.667 156.333L126.333 155.667z"/>
<path style="fill:#9fb4d2; stroke:none;" d="M97.3333 156.667L97.6667 157.333L97.3333 156.667M171 156L172 157L171 156z"/>
<path style="fill:#244172; stroke:none;" d="M172 156L171 163L172 163L174 156L172 156z"/>
<path style="fill:#9fb4d2; stroke:none;" d="M56 157L57 158L56 157M126 157L127 158L126 157z"/>
<path style="fill:#285396; stroke:none;" d="M149 157L150 158L149 157z"/>
<path style="fill:#657ba1; stroke:none;" d="M171.333 157.667L171.667 158.333L171.333 157.667M56.3333 158.667L56.6667 159.333L56.3333 158.667z"/>
<path style="fill:#285396; stroke:none;" d="M96 158L97 159L96 158z"/>
<path style="fill:#657ba1; stroke:none;" d="M149.333 158.667L149.667 159.333L149.333 158.667z"/>
<path style="fill:#244172; stroke:none;" d="M76 159L76 163L77 163L76 159z"/>
<path style="fill:#657ba1; stroke:none;" d="M96.3333 159.667L96.6667 160.333L96.3333 159.667z"/>
<path style="fill:#244172; stroke:none;" d="M146 159L147 160L146 159z"/>
<path style="fill:#657ba1; stroke:none;" d="M75 160L76 161L75 160M127.333 160.667L127.667 161.333L127.333 160.667z"/>
<path style="fill:#244172; stroke:none;" d="M128 160L128 163L129 163L128 160z"/>
<path style="fill:#9fb4d2; stroke:none;" d="M149.333 160.667L149.667 161.333L149.333 160.667M170.333 160.667L170.667 161.333L170.333 160.667z"/>
<path style="fill:#244172; stroke:none;" d="M56 161C56.8581 180.935 64.3744 201.36 67.9167 221C69.1103 227.618 69.0788 238.737 77 240L77 239C69.9363 236.769 70.301 225.266 68.8804 219C64.7807 200.917 64.0113 177.665 56 161z"/>
<path style="fill:#9fb4d2; stroke:none;" d="M57.3333 161.667L57.6667 162.333L57.3333 161.667M75 161L75 164L76 164L75 161M96 161L97 162L96 161M127 162L128 163L127 162z"/>
<path style="fill:#657ba1; stroke:none;" d="M170 162L171 163L170 162M57.3333 163.667L57.6667 164.333L57.3333 163.667z"/>
<path style="fill:#285396; stroke:none;" d="M95 163L96 164L95 163M148 163L149 164L148 163z"/>
<path style="fill:#244172; stroke:none;" d="M77 164L77 170L78 170L77 164z"/>
<path style="fill:#657ba1; stroke:none;" d="M95 164L96 165L95 164z"/>
<path style="fill:#244172; stroke:none;" d="M129 164L130 173L131 173L129 164z"/>
<path style="fill:#657ba1; stroke:none;" d="M148 164L149 165L148 164z"/>
<path style="fill:#9fb4d2; stroke:none;" d="M169.333 164.667L169.667 165.333L169.333 164.667z"/>
<path style="fill:#244172; stroke:none;" d="M170 164L170 167L171 167L170 164z"/>
<path style="fill:#285396; stroke:none;" d="M57 165L58 166L57 165z"/>
<path style="fill:#657ba1; stroke:none;" d="M76.3333 165.667L76.6667 166.333L76.3333 165.667z"/>
<path style="fill:#9fb4d2; stroke:none;" d="M95.3333 165.667L95.6667 166.333L95.3333 165.667M110.333 165.667L110.667 166.333L110.333 165.667z"/>
<path style="fill:#657ba1; stroke:none;" d="M128 165L129 166L128 165z"/>
<path style="fill:#9fb4d2; stroke:none;" d="M148.333 165.667L148.667 166.333L148.333 165.667M58.3333 166.667L58.6667 167.333L58.3333 166.667M128.333 166.667L128.667 167.333L128.333 166.667z"/>
<path style="fill:#657ba1; stroke:none;" d="M169 166L170 167L169 166z"/>
<path style="fill:#9fb4d2; stroke:none;" d="M76 167L76 170L77 170L76 167z"/>
<path style="fill:#657ba1; stroke:none;" d="M110.333 167.667L110.667 168.333L110.333 167.667z"/>
<path style="fill:#244172; stroke:none;" d="M218 167L218 168L301 168C306.966 168 323.915 165.097 328.254 169.603C330.588 172.028 329.667 176.897 330 180L247 180C240.214 180 221.988 176.763 216.603 181.028C212.734 184.093 215 197.426 215 202L216 202L216 181L331 181L331 167L218 167z"/>
<path style="fill:#657ba1; stroke:none;" d="M58.3333 168.667L58.6667 169.333L58.3333 168.667M94.3333 168.667L94.6667 169.333L94.3333 168.667z"/>
<path style="fill:#285396; stroke:none;" d="M147 168L148 169L147 168z"/>
<path style="fill:#9fb4d2; stroke:none;" d="M168.333 168.667L168.667 169.333L168.333 168.667M109 169L109 173L110 173L109 169z"/>
<path style="fill:#285396; stroke:none;" d="M110 169L111 170L110 169M129 169L130 170L129 169z"/>
<path style="fill:#657ba1; stroke:none;" d="M147.333 169.667L147.667 170.333L147.333 169.667z"/>
<path style="fill:#244172; stroke:none;" d="M169 169L166 183L167 183L169 169z"/>
<path style="fill:#285396; stroke:none;" d="M58 170L59 171L58 170z"/>
<path style="fill:#9fb4d2; stroke:none;" d="M94 170L95 171L94 170z"/>
<path style="fill:#244172; stroke:none;" d="M110 170L109 179L110 179L110 176L111 176L111 180L112 180L110 170z"/>
<path style="fill:#657ba1; stroke:none;" d="M129 170L130 171L129 170M168 170L169 171L168 170z"/>
<path style="fill:#9fb4d2; stroke:none;" d="M59.3333 171.667L59.6667 172.333L59.3333 171.667z"/>
<path style="fill:#657ba1; stroke:none;" d="M77.3333 171.667L77.6667 172.333L77.3333 171.667z"/>
<path style="fill:#244172; stroke:none;" d="M78 171L78 175L79 175L78 171z"/>
<path style="fill:#9fb4d2; stroke:none;" d="M129 171L130 172L129 171M147.333 171.667L147.667 172.333L147.333 171.667z"/>
<path style="fill:#285396; stroke:none;" d="M168 171L169 172L168 171z"/>
<path style="fill:#657ba1; stroke:none;" d="M93.3333 172.667L93.6667 173.333L93.3333 172.667z"/>
<path style="fill:#9fb4d2; stroke:none;" d="M111.333 172.667L111.667 173.333L111.333 172.667M167.333 172.667L167.667 173.333L167.333 172.667z"/>
<path style="fill:#657ba1; stroke:none;" d="M59 173L60 174L59 173z"/>
<path style="fill:#9fb4d2; stroke:none;" d="M77.3333 173.667L77.6667 174.333L77.3333 173.667z"/>
<path style="fill:#657ba1; stroke:none;" d="M109 173L110 174L109 173z"/>
<path style="fill:#285396; stroke:none;" d="M59 174L60 175L59 174z"/>
<path style="fill:#9fb4d2; stroke:none;" d="M93.3333 174.667L93.6667 175.333L93.3333 174.667z"/>
<path style="fill:#285396; stroke:none;" d="M109.333 174.667L109.667 175.333L109.333 174.667z"/>
<path style="fill:#657ba1; stroke:none;" d="M111 174L112 175L111 174M130.333 174.667L130.667 175.333L130.333 174.667M146.333 174.667L146.667 175.333L146.333 174.667M167 174L168 175L167 174z"/>
<path style="fill:#285396; stroke:none;" d="M111 175L112 176L111 175z"/>
<path style="fill:#244172; stroke:none;" d="M131.333 175.667L131.667 176.333L131.333 175.667z"/>
<path style="fill:#285396; stroke:none;" d="M167 175L168 176L167 175z"/>
<path style="fill:#9fb4d2; stroke:none;" d="M60.3333 176.667L60.6667 177.333L60.3333 176.667z"/>
<path style="fill:#285396; stroke:none;" d="M92 176L93 177L92 176z"/>
<path style="fill:#9fb4d2; stroke:none;" d="M108 176L109 177L108 176M130 176L131 177L130 176M146.333 176.667L146.667 177.333L146.333 176.667z"/>
<path style="fill:#657ba1; stroke:none;" d="M78.3333 177.667L78.6667 178.333L78.3333 177.667z"/>
<path style="fill:#244172; stroke:none;" d="M79 177L79 181L80 181L79 177z"/>
<path style="fill:#657ba1; stroke:none;" d="M92.3333 177.667L92.6667 178.333L92.3333 177.667M108.333 177.667L108.667 178.333L108.333 177.667z"/>
<path style="fill:#9fb4d2; stroke:none;" d="M112 177L113 178L112 177M166 177L167 178L166 177z"/>
<path style="fill:#657ba1; stroke:none;" d="M60 178L61 179L60 178M112.333 178.667L112.667 179.333L112.333 178.667M131.333 178.667L131.667 179.333L131.333 178.667z"/>
<path style="fill:#244172; stroke:none;" d="M132 178L133 186L134 186L132 178z"/>
<path style="fill:#657ba1; stroke:none;" d="M166 178L167 179L166 178z"/>
<path style="fill:#285396; stroke:none;" d="M60 179L61 180L60 179z"/>
<path style="fill:#9fb4d2; stroke:none;" d="M78.3333 179.667L78.6667 180.333L78.3333 179.667M92 179L93 180L92 179z"/>
<path style="fill:#285396; stroke:none;" d="M145 179L146 180L145 179M166 179L167 180L166 179z"/>
<path style="fill:#9fb4d2; stroke:none;" d="M107.333 180.667L107.667 181.333L107.333 180.667z"/>
<path style="fill:#244172; stroke:none;" d="M108 180L107 187L108 187L108 180z"/>
<path style="fill:#9fb4d2; stroke:none;" d="M131.333 180.667L131.667 181.333L131.333 180.667z"/>
<path style="fill:#657ba1; stroke:none;" d="M145 180L146 181L145 180z"/>
<path style="fill:#9fb4d2; stroke:none;" d="M331 180L332 181L331 180M61 181L62 182L61 181z"/>
<path style="fill:#285396; stroke:none;" d="M91 181L92 182L91 181z"/>
<path style="fill:#244172; stroke:none;" d="M112 181L115 198L116 198L112 181z"/>
<path style="fill:#9fb4d2; stroke:none;" d="M113.333 181.667L113.667 182.333L113.333 181.667M145 181L145 184L146 184L145 181M165 181L166 182L165 181z"/>
<path style="fill:#657ba1; stroke:none;" d="M216 181L216 182L331 182L296 181L216 181M61.3333 182.667L61.6667 183.333L61.3333 182.667M79.3333 182.667L79.6667 183.333L79.3333 182.667z"/>
<path style="fill:#244172; stroke:none;" d="M80 182L80 187L81 187L80 182z"/>
<path style="fill:#657ba1; stroke:none;" d="M91 182L92 183L91 182M107 182L108 183L107 182z"/>
<path style="fill:#285396; stroke:none;" d="M132 182L133 183L132 182z"/>
<path style="fill:#657ba1; stroke:none;" d="M165.333 182.667L165.667 183.333L165.333 182.667z"/>
<path style="fill:#9fb4d2; stroke:none;" d="M216 182L216 202L217 202L216 182M91 183L92 184L91 183z"/>
<path style="fill:#285396; stroke:none;" d="M107 183L108 184L107 183z"/>
<path style="fill:#657ba1; stroke:none;" d="M113 183L114 184L113 183M132.333 183.667L132.667 184.333L132.333 183.667z"/>
<path style="fill:#9fb4d2; stroke:none;" d="M79 184L79 187L80 187L79 184z"/>
<path style="fill:#285396; stroke:none;" d="M113 184L114 185L113 184M144 184L145 185L144 184z"/>
<path style="fill:#244172; stroke:none;" d="M165 184L165 189L166 189L165 184z"/>
<path style="fill:#9fb4d2; stroke:none;" d="M62.3333 185.667L62.6667 186.333L62.3333 185.667z"/>
<path style="fill:#285396; stroke:none;" d="M90 185L91 186L90 185z"/>
<path style="fill:#9fb4d2; stroke:none;" d="M106 185L107 186L106 185M132.333 185.667L132.667 186.333L132.333 185.667z"/>
<path style="fill:#657ba1; stroke:none;" d="M144.333 185.667L144.667 186.333L144.333 185.667z"/>
<path style="fill:#9fb4d2; stroke:none;" d="M164 185L165 186L164 185z"/>
<path style="fill:#657ba1; stroke:none;" d="M90 186L91 187L90 186M106.333 186.667L106.667 187.333L106.333 186.667z"/>
<path style="fill:#9fb4d2; stroke:none;" d="M114 186L115 187L114 186z"/>
<path style="fill:#657ba1; stroke:none;" d="M164.333 186.667L164.667 187.333L164.333 186.667M62.3333 187.667L62.6667 188.333L62.3333 187.667z"/>
<path style="fill:#9fb4d2; stroke:none;" d="M90.3333 187.667L90.6667 188.333L90.3333 187.667z"/>
<path style="fill:#657ba1; stroke:none;" d="M114.333 187.667L114.667 188.333L114.333 187.667z"/>
<path style="fill:#9fb4d2; stroke:none;" d="M144.333 187.667L144.667 188.333L144.333 187.667z"/>
<path style="fill:#657ba1; stroke:none;" d="M80.3333 188.667L80.6667 189.333L80.3333 188.667z"/>
<path style="fill:#244172; stroke:none;" d="M81 188L81 193L82 193L81 188z"/>
<path style="fill:#657ba1; stroke:none;" d="M133 188L134 189L133 188z"/>
<path style="fill:#285396; stroke:none;" d="M62 189L63 190L62 189z"/>
<path style="fill:#9fb4d2; stroke:none;" d="M105.333 189.667L105.667 190.333L105.333 189.667z"/>
<path style="fill:#244172; stroke:none;" d="M106 189L106 192L107 192L106 189z"/>
<path style="fill:#285396; stroke:none;" d="M114 189L115 190L114 189z"/>
<path style="fill:#9fb4d2; stroke:none;" d="M133.333 189.667L133.667 190.333L133.333 189.667z"/>
<path style="fill:#244172; stroke:none;" d="M134 189L136 201L137 201L134 189z"/>
<path style="fill:#9fb4d2; stroke:none;" d="M163 189L164 190L163 189M63.3333 190.667L63.6667 191.333L63.3333 190.667M80 190L80 193L81 193L80 190z"/>
<path style="fill:#657ba1; stroke:none;" d="M89.3333 190.667L89.6667 191.333L89.3333 190.667z"/>
<path style="fill:#9fb4d2; stroke:none;" d="M115.333 190.667L115.667 191.333L115.333 190.667z"/>
<path style="fill:#285396; stroke:none;" d="M143 190L144 191L143 190z"/>
<path style="fill:#657ba1; stroke:none;" d="M163.333 190.667L163.667 191.333L163.333 190.667M105 191L106 192L105 191M143 191L144 192L143 191z"/>
<path style="fill:#244172; stroke:none;" d="M164 191L165 192L164 191M21 192L21 312L22 312L22 228L21 192z"/>
<path style="fill:#657ba1; stroke:none;" d="M63 192L64 193L63 192z"/>
<path style="fill:#9fb4d2; stroke:none;" d="M89.3333 192.667L89.6667 193.333L89.3333 192.667z"/>
<path style="fill:#657ba1; stroke:none;" d="M115 192L116 193L115 192z"/>
<path style="fill:#285396; stroke:none;" d="M134 192L135 193L134 192z"/>
<path style="fill:#9fb4d2; stroke:none;" d="M143.333 192.667L143.667 193.333L143.333 192.667z"/>
<path style="fill:#285396; stroke:none;" d="M63 193L64 194L63 193z"/>
<path style="fill:#244172; stroke:none;" d="M105 193L105 197L106 197L105 193z"/>
<path style="fill:#285396; stroke:none;" d="M115 193L116 194L115 193z"/>
<path style="fill:#657ba1; stroke:none;" d="M134 193L135 194L134 193z"/>
<path style="fill:#9fb4d2; stroke:none;" d="M162.333 193.667L162.667 194.333L162.333 193.667z"/>
<path style="fill:#657ba1; stroke:none;" d="M81.3333 194.667L81.6667 195.333L81.3333 194.667z"/>
<path style="fill:#244172; stroke:none;" d="M82 194L82 199L83 199L82 194z"/>
<path style="fill:#285396; stroke:none;" d="M88 194L89 195L88 194z"/>
<path style="fill:#9fb4d2; stroke:none;" d="M104 194L105 195L104 194M134.333 194.667L134.667 195.333L134.333 194.667z"/>
<path style="fill:#244172; stroke:none;" d="M163 194L162 200L163 200L163 194z"/>
<path style="fill:#9fb4d2; stroke:none;" d="M64.3333 195.667L64.6667 196.333L64.3333 195.667z"/>
<path style="fill:#657ba1; stroke:none;" d="M88 195L89 196L88 195M104.333 195.667L104.667 196.333L104.333 195.667z"/>
<path style="fill:#9fb4d2; stroke:none;" d="M116 195L117 196L116 195z"/>
<path style="fill:#285396; stroke:none;" d="M142 195L143 196L142 195z"/>
<path style="fill:#657ba1; stroke:none;" d="M162 195L163 196L162 195z"/>
<path style="fill:#9fb4d2; stroke:none;" d="M81.3333 196.667L81.6667 197.333L81.3333 196.667M88.3333 196.667L88.6667 197.333L88.3333 196.667z"/>
<path style="fill:#657ba1; stroke:none;" d="M116.333 196.667L116.667 197.333L116.333 196.667M142.333 196.667L142.667 197.333L142.333 196.667z"/>
<path style="fill:#285396; stroke:none;" d="M162 196L163 197L162 196z"/>
<path style="fill:#657ba1; stroke:none;" d="M64 197L65 198L64 197M135.333 197.667L135.667 198.333L135.333 197.667z"/>
<path style="fill:#9fb4d2; stroke:none;" d="M161.333 197.667L161.667 198.333L161.333 197.667z"/>
<path style="fill:#285396; stroke:none;" d="M64 198L65 199L64 198M87 198L88 199L87 198z"/>
<path style="fill:#9fb4d2; stroke:none;" d="M103.333 198.667L103.667 199.333L103.333 198.667z"/>
<path style="fill:#244172; stroke:none;" d="M104 198L104 201L105 201L104 198z"/>
<path style="fill:#9fb4d2; stroke:none;" d="M142 198L143 199L142 198z"/>
<path style="fill:#657ba1; stroke:none;" d="M87.3333 199.667L87.6667 200.333L87.3333 199.667z"/>
<path style="fill:#244172; stroke:none;" d="M116 199L123 234L124 234C123.149 223.578 120.943 208.23 116 199z"/>
<path style="fill:#9fb4d2; stroke:none;" d="M117.333 199.667L117.667 200.333L117.333 199.667M135 199L136 200L135 199z"/>
<path style="fill:#657ba1; stroke:none;" d="M161 199L162 200L161 199z"/>
<path style="fill:#9fb4d2; stroke:none;" d="M65.3333 200.667L65.6667 201.333L65.3333 200.667z"/>
<path style="fill:#657ba1; stroke:none;" d="M82.3333 200.667L82.6667 201.333L82.3333 200.667M103 200L104 201L103 200z"/>
<path style="fill:#9fb4d2; stroke:none;" d="M87 201L88 202L87 201z"/>
<path style="fill:#657ba1; stroke:none;" d="M117 201L118 202L117 201z"/>
<path style="fill:#285396; stroke:none;" d="M141 201L142 202L141 201z"/>
<path style="fill:#244172; stroke:none;" d="M161 201L161 204L162 204L161 201z"/>
<path style="fill:#9fb4d2; stroke:none;" d="M330 201L331 205L332 205L330 201z"/>
<path style="fill:#657ba1; stroke:none;" d="M65 202L66 203L65 202z"/>
<path style="fill:#9fb4d2; stroke:none;" d="M82.3333 202.667L82.6667 203.333L82.3333 202.667M102.333 202.667L102.667 203.333L102.333 202.667z"/>
<path style="fill:#244172; stroke:none;" d="M103 202L103 206L104 206L103 202z"/>
<path style="fill:#285396; stroke:none;" d="M117 202L118 203L117 202z"/>
<path style="fill:#657ba1; stroke:none;" d="M136 202L137 203L136 202z"/>
<path style="fill:#244172; stroke:none;" d="M137 202L137 206L138 206L137 202z"/>
<path style="fill:#657ba1; stroke:none;" d="M141 202L142 203L141 202z"/>
<path style="fill:#9fb4d2; stroke:none;" d="M160 202L161 203L160 202z"/>
<path style="fill:#244172; stroke:none;" d="M221.333 202.667L221.667 203.333L221.333 202.667M330 202L330 214C303.223 220.378 271.426 216 244 216C235.729 216 225.998 214.261 218 216L218 217C246.855 214.597 277.008 217 306 217C317.449 217 337.667 220.27 330 202z"/>
<path style="fill:#285396; stroke:none;" d="M65 203L66 204L65 203z"/>
<path style="fill:#244172; stroke:none;" d="M83.3333 203.667L83.6667 204.333L83.3333 203.667z"/>
<path style="fill:#285396; stroke:none;" d="M86 203L87 204L86 203z"/>
<path style="fill:#9fb4d2; stroke:none;" d="M136.333 203.667L136.667 204.333L136.333 203.667M141.333 203.667L141.667 204.333L141.333 203.667z"/>
<path style="fill:#657ba1; stroke:none;" d="M160 203L161 204L160 203z"/>
<path style="fill:#244172; stroke:none;" d="M218 203L219 204L218 203z"/>
<path style="fill:#9fb4d2; stroke:none;" d="M66.3333 204.667L66.6667 205.333L66.3333 204.667z"/>
<path style="fill:#657ba1; stroke:none;" d="M86 204L87 205L86 204M102.333 204.667L102.667 205.333L102.333 204.667z"/>
<path style="fill:#9fb4d2; stroke:none;" d="M118 204L119 205L118 204M86 205L87 206L86 205z"/>
<path style="fill:#657ba1; stroke:none;" d="M118.333 205.667L118.667 206.333L118.333 205.667z"/>
<path style="fill:#9fb4d2; stroke:none;" d="M159.333 205.667L159.667 206.333L159.333 205.667z"/>
<path style="fill:#244172; stroke:none;" d="M160 205L160 208L161 208L160 205M220 205L221 206L220 205z"/>
<path style="fill:#657ba1; stroke:none;" d="M66.3333 206.667L66.6667 207.333L66.3333 206.667M83.3333 206.667L83.6667 207.333L83.3333 206.667z"/>
<path style="fill:#285396; stroke:none;" d="M140 206L141 207L140 206z"/>
<path style="fill:#9fb4d2; stroke:none;" d="M331.333 206.667L331.667 207.333L331.333 206.667M101.333 207.667L101.667 208.333L101.333 207.667z"/>
<path style="fill:#244172; stroke:none;" d="M102 207L101 214L102 214L102 207z"/>
<path style="fill:#657ba1; stroke:none;" d="M137 207L138 208L137 207M140 207L141 208L140 207M159 207L160 208L159 207z"/>
<path style="fill:#285396; stroke:none;" d="M66 208L67 209L66 208z"/>
<path style="fill:#9fb4d2; stroke:none;" d="M83.3333 208.667L83.6667 209.333L83.3333 208.667z"/>
<path style="fill:#657ba1; stroke:none;" d="M85.3333 208.667L85.6667 209.333L85.3333 208.667z"/>
<path style="fill:#9fb4d2; stroke:none;" d="M119.333 208.667L119.667 209.333L119.333 208.667M137.333 208.667L137.667 209.333L137.333 208.667M140 208L140 211L141 211L140 208M67.3333 209.667L67.6667 210.333L67.3333 209.667z"/>
<path style="fill:#657ba1; stroke:none;" d="M101 209L102 210L101 209z"/>
<path style="fill:#9fb4d2; stroke:none;" d="M85 210L86 211L85 210z"/>
<path style="fill:#285396; stroke:none;" d="M101 210L102 211L101 210z"/>
<path style="fill:#657ba1; stroke:none;" d="M119 210L120 211L119 210z"/>
<path style="fill:#9fb4d2; stroke:none;" d="M158 210L159 211L158 210z"/>
<path style="fill:#244172; stroke:none;" d="M159 210L158 216L159 216L159 210z"/>
<path style="fill:#657ba1; stroke:none;" d="M67.3333 211.667L67.6667 212.333L67.3333 211.667z"/>
<path style="fill:#285396; stroke:none;" d="M119 211L120 212L119 211M138 211L140 214L138 211z"/>
<path style="fill:#657ba1; stroke:none;" d="M158.333 211.667L158.667 212.333L158.333 211.667z"/>
<path style="fill:#9fb4d2; stroke:none;" d="M100 212L101 213L100 212M331 212L331 217L332 217L331 212z"/>
<path style="fill:#657ba1; stroke:none;" d="M84 213L84 216L85 216L84 213M100 213L101 214L100 213z"/>
<path style="fill:#9fb4d2; stroke:none;" d="M120 213L121 214L120 213z"/>
<path style="fill:#657ba1; stroke:none;" d="M138 213L139 217L140 217L138 213z"/>
<path style="fill:#285396; stroke:none;" d="M158 213L159 214L158 213z"/>
<path style="fill:#9fb4d2; stroke:none;" d="M68.3333 214.667L68.6667 215.333L68.3333 214.667z"/>
<path style="fill:#657ba1; stroke:none;" d="M120.333 214.667L120.667 215.333L120.333 214.667z"/>
<path style="fill:#9fb4d2; stroke:none;" d="M157.333 214.667L157.667 215.333L157.333 214.667z"/>
<path style="fill:#244172; stroke:none;" d="M100 215L102 219L100 215z"/>
<path style="fill:#9fb4d2; stroke:none;" d="M138 215L140 219L138 215z"/>
<path style="fill:#657ba1; stroke:none;" d="M68 216L69 217L68 216z"/>
<path style="fill:#9fb4d2; stroke:none;" d="M84.3333 216.667L84.6667 217.333L84.3333 216.667M99.3333 216.667L99.6667 217.333L99.3333 216.667z"/>
<path style="fill:#244172; stroke:none;" d="M159 216L160 217L159 216M215 216L216 239L217 239L217 216L215 216z"/>
<path style="fill:#285396; stroke:none;" d="M220.667 216.333L221.333 216.667L220.667 216.333M223 216L224 217L223 216M325 216L326 217L325 216M330 216L331 217L330 216M68 217L69 218L68 217z"/>
<path style="fill:#9fb4d2; stroke:none;" d="M121.333 217.667L121.667 218.333L121.333 217.667z"/>
<path style="fill:#244172; stroke:none;" d="M157 217L157 220L158 220L157 217z"/>
<path style="fill:#9fb4d2; stroke:none;" d="M216 217L216 237L217 237L216 217z"/>
<path style="fill:#657ba1; stroke:none;" d="M99 218L100 219L99 218z"/>
<path style="fill:#9fb4d2; stroke:none;" d="M156 218L157 219L156 218M69 219L70 220L69 219z"/>
<path style="fill:#657ba1; stroke:none;" d="M121 219L122 220L121 219M156 219L157 220L156 219M69.3333 220.667L69.6667 221.333L69.3333 220.667z"/>
<path style="fill:#9fb4d2; stroke:none;" d="M98.3333 220.667L98.6667 221.333L98.3333 220.667z"/>
<path style="fill:#244172; stroke:none;" d="M99 220L97 232L98 232L99 220z"/>
<path style="fill:#285396; stroke:none;" d="M121 220L122 221L121 220z"/>
<path style="fill:#244172; stroke:none;" d="M156 221L156 224L157 224L156 221z"/>
<path style="fill:#657ba1; stroke:none;" d="M98.3333 222.667L98.6667 223.333L98.3333 222.667z"/>
<path style="fill:#9fb4d2; stroke:none;" d="M122 222L123 223L122 222M155.333 222.667L155.667 223.333L155.333 222.667z"/>
<path style="fill:#657ba1; stroke:none;" d="M122.333 223.667L122.667 224.333L122.333 223.667z"/>
<path style="fill:#9fb4d2; stroke:none;" d="M70 224L71 225L70 224z"/>
<path style="fill:#657ba1; stroke:none;" d="M70.3333 225.667L70.6667 226.333L70.3333 225.667z"/>
<path style="fill:#9fb4d2; stroke:none;" d="M97.3333 225.667L97.6667 226.333L97.3333 225.667z"/>
<path style="fill:#285396; stroke:none;" d="M122 225L123 226L122 225z"/>
<path style="fill:#9fb4d2; stroke:none;" d="M123.333 226.667L123.667 227.333L123.333 226.667M154 226L155 227L154 226z"/>
<path style="fill:#244172; stroke:none;" d="M155 226L154 234L155 234L155 226z"/>
<path style="fill:#285396; stroke:none;" d="M70 227L71 228L70 227z"/>
<path style="fill:#657ba1; stroke:none;" d="M97 227L98 228L97 227M154.333 227.667L154.667 228.333L154.333 227.667z"/>
<path style="fill:#9fb4d2; stroke:none;" d="M71.3333 228.667L71.6667 229.333L71.3333 228.667z"/>
<path style="fill:#285396; stroke:none;" d="M97 228L98 229L97 228z"/>
<path style="fill:#657ba1; stroke:none;" d="M123.333 228.667L123.667 229.333L123.333 228.667z"/>
<path style="fill:#9fb4d2; stroke:none;" d="M96.3333 229.667L96.6667 230.333L96.3333 229.667z"/>
<path style="fill:#285396; stroke:none;" d="M154 229L155 230L154 229z"/>
<path style="fill:#657ba1; stroke:none;" d="M71.3333 230.667L71.6667 231.333L71.3333 230.667z"/>
<path style="fill:#9fb4d2; stroke:none;" d="M124.333 230.667L124.667 231.333L124.333 230.667M153.333 230.667L153.667 231.333L153.333 230.667z"/>
<path style="fill:#657ba1; stroke:none;" d="M96 231L97 232L96 231M124.333 232.667L124.667 233.333L124.333 232.667M153 232L154 233L153 232z"/>
<path style="fill:#9fb4d2; stroke:none;" d="M72.3333 233.667L72.6667 234.333L72.3333 233.667M95 234L96 235L95 234z"/>
<path style="fill:#244172; stroke:none;" d="M96 234L96 237L97 237L96 234z"/>
<path style="fill:#9fb4d2; stroke:none;" d="M152.333 234.667L152.667 235.333L152.333 234.667z"/>
<path style="fill:#657ba1; stroke:none;" d="M72 235L73 236L72 235M95.3333 235.667L95.6667 236.333L95.3333 235.667z"/>
<path style="fill:#244172; stroke:none;" d="M124 235L125 244L132 244L132 243L126 243L124 235z"/>
<path style="fill:#9fb4d2; stroke:none;" d="M125.333 235.667L125.667 236.333L125.333 235.667z"/>
<path style="fill:#244172; stroke:none;" d="M153 235L152 240L153 240L153 235z"/>
<path style="fill:#285396; stroke:none;" d="M72 236L73 237L72 236z"/>
<path style="fill:#657ba1; stroke:none;" d="M152 236L153 237L152 236M125 237L126 238L125 237z"/>
<path style="fill:#285396; stroke:none;" d="M152 237L153 238L152 237z"/>
<path style="fill:#657ba1; stroke:none;" d="M216 237L216 238L331 238L296 237L216 237z"/>
<path style="fill:#9fb4d2; stroke:none;" d="M73.6667 238.333L74.3333 238.667L73.6667 238.333M94.3333 238.667L94.6667 239.333L94.3333 238.667z"/>
<path style="fill:#244172; stroke:none;" d="M95.3333 238.667L95.6667 239.333L95.3333 238.667z"/>
<path style="fill:#285396; stroke:none;" d="M125 238L126 239L125 238z"/>
<path style="fill:#9fb4d2; stroke:none;" d="M151.333 238.667L151.667 239.333L151.333 238.667z"/>
<path style="fill:#244172; stroke:none;" d="M218 238L218 239L304 239C310.208 239 330.076 235.507 329.833 245C329.585 254.64 309.535 251 303 251L215 251L215 273L216 273L216 252L331 252L331 238L218 238z"/>
<path style="fill:#9fb4d2; stroke:none;" d="M331 238L332 239L331 238z"/>
<path style="fill:#657ba1; stroke:none;" d="M80 239L80 240L84 240L80 239z"/>
<path style="fill:#9fb4d2; stroke:none;" d="M84 239L84 240L89 240L84 239z"/>
<path style="fill:#244172; stroke:none;" d="M154 239L155 240L154 239M80 240L80 241L92 242L80 240z"/>
<path style="fill:#285396; stroke:none;" d="M90.6667 240.333L91.3333 240.667L90.6667 240.333z"/>
<path style="fill:#657ba1; stroke:none;" d="M92.6667 240.333L93.3333 240.667L92.6667 240.333z"/>
<path style="fill:#9fb4d2; stroke:none;" d="M126 240L127 241L126 240z"/>
<path style="fill:#657ba1; stroke:none;" d="M151 240L152 241L151 240z"/>
<path style="fill:#9fb4d2; stroke:none;" d="M331 240L331 252L332 252L331 240z"/>
<path style="fill:#657ba1; stroke:none;" d="M126.333 241.667L126.667 242.333L126.333 241.667z"/>
<path style="fill:#9fb4d2; stroke:none;" d="M127 242L127 243L130 243L127 242M150.333 242.667L150.667 243.333L150.333 242.667z"/>
<path style="fill:#244172; stroke:none;" d="M151 242L152 243L151 242z"/>
<path style="fill:#657ba1; stroke:none;" d="M134 243L134 244L139 244L134 243z"/>
<path style="fill:#9fb4d2; stroke:none;" d="M139 243L139 244L143 244L139 243z"/>
<path style="fill:#244172; stroke:none;" d="M123 244L124 245L123 244M134 244L134 245L144 245L134 244z"/>
<path style="fill:#657ba1; stroke:none;" d="M149 244L150 245L149 244z"/>
<path style="fill:#285396; stroke:none;" d="M150 244L151 245L150 244z"/>
<path style="fill:#244172; stroke:none;" d="M151 244L152 245L151 244M146 245L146 246L149 246L146 245M150 245L151 246L150 245z"/>
<path style="fill:#657ba1; stroke:none;" d="M216 252L217 253L216 252z"/>
<path style="fill:#9fb4d2; stroke:none;" d="M217 252L217 253L331 253L296 252L217 252M216 253L216 273L217 273L216 253z"/>
<path style="fill:#657ba1; stroke:none;" d="M217 273L217 274L220 274L217 273M330 273L331 274L330 273z"/>
<path style="fill:#244172; stroke:none;" d="M218.667 274.333L219.333 274.667L218.667 274.333M221.667 274.333L222.333 274.667L221.667 274.333M224 274L224 275L324 275L293 274L224 274M327 274L328 275L327 274M329 274L330 286L293 286L217 287L217 288L331 288L331 274L329 274z"/>
<path style="fill:#9fb4d2; stroke:none;" d="M331 274L331 285L332 285L331 274M331.333 286.667L331.667 287.333L331.333 286.667z"/>
<path style="fill:#244172; stroke:none;" d="M215 288L215 311L216 311L215 288z"/>
<path style="fill:#657ba1; stroke:none;" d="M216 288L217 289L216 288z"/>
<path style="fill:#244172; stroke:none;" d="M358 304L359 305L358 304M353.333 308.667L353.667 309.333L353.333 308.667M217 311L217 312L353 312C342.258 307.492 323.682 311 312 311L217 311M21.3333 313.667L21.6667 314.333L21.3333 313.667z"/>
<path style="fill:#657ba1; stroke:none;" d="M365 313L366 314L365 313z"/>
<path style="fill:#244172; stroke:none;" d="M361 314L360 316L361 314z"/>
<path style="fill:#9fb4d2; stroke:none;" d="M365 314L366 315L365 314z"/>
<path style="fill:#657ba1; stroke:none;" d="M364 315L365 316L364 315z"/>
<path style="fill:#244172; stroke:none;" d="M21 316L20 320L24 320L24 319L21 316z"/>
<path style="fill:#9fb4d2; stroke:none;" d="M364 316L365 317L364 316M363 317L364 318L363 317z"/>
<path style="fill:#657ba1; stroke:none;" d="M362 318L363 319L362 318M361 319L362 320L361 319z"/>
<path style="fill:#9fb4d2; stroke:none;" d="M20 320L21 321L20 320z"/>
<path style="fill:#657ba1; stroke:none;" d="M21.6667 320.333L22.3333 320.667L21.6667 320.333z"/>
<path style="fill:#244172; stroke:none;" d="M24 320L24 321L29 321L24 320z"/>
<path style="fill:#657ba1; stroke:none;" d="M360 320L361 321L360 320z"/>
<path style="fill:#9fb4d2; stroke:none;" d="M24.6667 321.333L25.3333 321.667L24.6667 321.333z"/>
<path style="fill:#657ba1; stroke:none;" d="M26.6667 321.333L27.3333 321.667L26.6667 321.333z"/>
<path style="fill:#244172; stroke:none;" d="M29 321L29 322L44 324L29 321M356.667 321.333L357.333 321.667L356.667 321.333z"/>
<path style="fill:#9fb4d2; stroke:none;" d="M359 321L360 322L359 321M29 322L29 323L32 323L29 322z"/>
<path style="fill:#657ba1; stroke:none;" d="M32.6667 322.333L33.3333 322.667L32.6667 322.333z"/>
<path style="fill:#244172; stroke:none;" d="M215 323L215 355L210 355L210 356L216 357L216 324L307 324L356 323L314 323L215 323z"/>
<path style="fill:#9fb4d2; stroke:none;" d="M357 322L358 323L357 322M35.6667 323.333L36.3333 323.667L35.6667 323.333z"/>
<path style="fill:#657ba1; stroke:none;" d="M37.6667 323.333L38.3333 323.667L37.6667 323.333z"/>
<path style="fill:#285396; stroke:none;" d="M353 323L354 324L353 323z"/>
<path style="fill:#657ba1; stroke:none;" d="M354 323L355 324L354 323z"/>
<path style="fill:#9fb4d2; stroke:none;" d="M355 323L356 324L355 323M41 324L42 325L41 324z"/>
<path style="fill:#657ba1; stroke:none;" d="M42.6667 324.333L43.3333 324.667L42.6667 324.333z"/>
<path style="fill:#244172; stroke:none;" d="M45 324L45 325L50 325L45 324z"/>
<path style="fill:#9fb4d2; stroke:none;" d="M216 324L216 357L217 357L216 324M45 325L45 326L48 326L45 325z"/>
<path style="fill:#657ba1; stroke:none;" d="M48 325L49 326L48 325z"/>
<path style="fill:#244172; stroke:none;" d="M50 325L50 326L55 326L50 325z"/>
<path style="fill:#9fb4d2; stroke:none;" d="M51.6667 326.333L52.3333 326.667L51.6667 326.333z"/>
<path style="fill:#657ba1; stroke:none;" d="M53.6667 326.333L54.3333 326.667L53.6667 326.333z"/>
<path style="fill:#244172; stroke:none;" d="M56 326L56 327L71 329L56 326z"/>
<path style="fill:#9fb4d2; stroke:none;" d="M56.6667 327.333L57.3333 327.667L56.6667 327.333z"/>
<path style="fill:#657ba1; stroke:none;" d="M58.6667 327.333L59.3333 327.667L58.6667 327.333z"/>
<path style="fill:#285396; stroke:none;" d="M60 327L61 328L60 327z"/>
<path style="fill:#9fb4d2; stroke:none;" d="M62.6667 328.333L63.3333 328.667L62.6667 328.333z"/>
<path style="fill:#657ba1; stroke:none;" d="M64 328L65 329L64 328z"/>
<path style="fill:#285396; stroke:none;" d="M65 328L66 329L65 328z"/>
<path style="fill:#9fb4d2; stroke:none;" d="M67.6667 329.333L68.3333 329.667L67.6667 329.333z"/>
<path style="fill:#657ba1; stroke:none;" d="M69.6667 329.333L70.3333 329.667L69.6667 329.333z"/>
<path style="fill:#244172; stroke:none;" d="M72 329L72 330L77 330L72 329z"/>
<path style="fill:#9fb4d2; stroke:none;" d="M72.6667 330.333L73.3333 330.667L72.6667 330.333z"/>
<path style="fill:#657ba1; stroke:none;" d="M74.6667 330.333L75.3333 330.667L74.6667 330.333z"/>
<path style="fill:#244172; stroke:none;" d="M77 330L77 331L93 333L77 330z"/>
<path style="fill:#9fb4d2; stroke:none;" d="M78.6667 331.333L79.3333 331.667L78.6667 331.333z"/>
<path style="fill:#657ba1; stroke:none;" d="M80 331L81 332L80 331z"/>
<path style="fill:#285396; stroke:none;" d="M81 331L82 332L81 331z"/>
<path style="fill:#9fb4d2; stroke:none;" d="M83.6667 332.333L84.3333 332.667L83.6667 332.333z"/>
<path style="fill:#657ba1; stroke:none;" d="M85 332L86 333L85 332z"/>
<path style="fill:#285396; stroke:none;" d="M86 332L87 333L86 332z"/>
<path style="fill:#9fb4d2; stroke:none;" d="M88.6667 333.333L89.3333 333.667L88.6667 333.333z"/>
<path style="fill:#657ba1; stroke:none;" d="M90.6667 333.333L91.3333 333.667L90.6667 333.333z"/>
<path style="fill:#244172; stroke:none;" d="M93 333L93 334L104 335L93 333z"/>
<path style="fill:#9fb4d2; stroke:none;" d="M93.6667 334.333L94.3333 334.667L93.6667 334.333z"/>
<path style="fill:#657ba1; stroke:none;" d="M95.6667 334.333L96.3333 334.667L95.6667 334.333z"/>
<path style="fill:#285396; stroke:none;" d="M97 334L98 335L97 334z"/>
<path style="fill:#9fb4d2; stroke:none;" d="M99.6667 335.333L100.333 335.667L99.6667 335.333z"/>
<path style="fill:#657ba1; stroke:none;" d="M101.667 335.333L102.333 335.667L101.667 335.333z"/>
<path style="fill:#244172; stroke:none;" d="M104 335L104 336L114 337L104 335z"/>
<path style="fill:#9fb4d2; stroke:none;" d="M104.667 336.333L105.333 336.667L104.667 336.333z"/>
<path style="fill:#657ba1; stroke:none;" d="M106 336L107 337L106 336z"/>
<path style="fill:#285396; stroke:none;" d="M107 336L108 337L107 336z"/>
<path style="fill:#9fb4d2; stroke:none;" d="M110.667 337.333L111.333 337.667L110.667 337.333z"/>
<path style="fill:#657ba1; stroke:none;" d="M112 337L113 338L112 337z"/>
<path style="fill:#244172; stroke:none;" d="M114 337L114 338L120 338L114 337z"/>
<path style="fill:#9fb4d2; stroke:none;" d="M114 338L114 339L117 339L114 338z"/>
<path style="fill:#657ba1; stroke:none;" d="M117.667 338.333L118.333 338.667L117.667 338.333z"/>
<path style="fill:#244172; stroke:none;" d="M120 338L120 339L125 339L120 338z"/>
<path style="fill:#9fb4d2; stroke:none;" d="M120.667 339.333L121.333 339.667L120.667 339.333z"/>
<path style="fill:#657ba1; stroke:none;" d="M122.667 339.333L123.333 339.667L122.667 339.333z"/>
<path style="fill:#244172; stroke:none;" d="M125 339L125 340L135 341L125 339M136 339L137 340L136 339z"/>
<path style="fill:#9fb4d2; stroke:none;" d="M125 340L125 341L128 341L125 340z"/>
<path style="fill:#657ba1; stroke:none;" d="M128 340L129 341L128 340z"/>
<path style="fill:#285396; stroke:none;" d="M129 340L130 341L129 340z"/>
<path style="fill:#9fb4d2; stroke:none;" d="M131.667 341.333L132.333 341.667L131.667 341.333z"/>
<path style="fill:#657ba1; stroke:none;" d="M133 341L134 342L133 341z"/>
<path style="fill:#244172; stroke:none;" d="M135 341L135 342L141 342L135 341z"/>
<path style="fill:#9fb4d2; stroke:none;" d="M136.667 342.333L137.333 342.667L136.667 342.333z"/>
<path style="fill:#657ba1; stroke:none;" d="M138.667 342.333L139.333 342.667L138.667 342.333z"/>
<path style="fill:#244172; stroke:none;" d="M141 342L141 343L151 344L141 342z"/>
<path style="fill:#9fb4d2; stroke:none;" d="M141.667 343.333L142.333 343.667L141.667 343.333z"/>
<path style="fill:#657ba1; stroke:none;" d="M143.667 343.333L144.333 343.667L143.667 343.333z"/>
<path style="fill:#285396; stroke:none;" d="M145 343L146 344L145 343z"/>
<path style="fill:#9fb4d2; stroke:none;" d="M146 344L146 345L149 345L146 344z"/>
<path style="fill:#657ba1; stroke:none;" d="M149 344L150 345L149 344z"/>
<path style="fill:#244172; stroke:none;" d="M151 344L151 345L168 347L151 344z"/>
<path style="fill:#9fb4d2; stroke:none;" d="M152.667 345.333L153.333 345.667L152.667 345.333z"/>
<path style="fill:#657ba1; stroke:none;" d="M154 345L155 346L154 345z"/>
<path style="fill:#285396; stroke:none;" d="M155 345L156 346L155 345z"/>
<path style="fill:#9fb4d2; stroke:none;" d="M157.667 346.333L158.333 346.667L157.667 346.333z"/>
<path style="fill:#657ba1; stroke:none;" d="M159 346L160 347L159 346z"/>
<path style="fill:#285396; stroke:none;" d="M160.667 346.333L161.333 346.667L160.667 346.333z"/>
<path style="fill:#9fb4d2; stroke:none;" d="M162 347L162 348L165 348L162 347z"/>
<path style="fill:#657ba1; stroke:none;" d="M165 347L166 348L165 347z"/>
<path style="fill:#244172; stroke:none;" d="M168 347L168 348L173 348L168 347z"/>
<path style="fill:#9fb4d2; stroke:none;" d="M167 348L167 349L170 349L167 348z"/>
<path style="fill:#657ba1; stroke:none;" d="M170 348L171 349L170 348z"/>
<path style="fill:#244172; stroke:none;" d="M173 348L173 349L183 350L173 348z"/>
<path style="fill:#9fb4d2; stroke:none;" d="M173.667 349.333L174.333 349.667L173.667 349.333z"/>
<path style="fill:#657ba1; stroke:none;" d="M175.667 349.333L176.333 349.667L175.667 349.333z"/>
<path style="fill:#285396; stroke:none;" d="M177 349L178 350L177 349z"/>
<path style="fill:#9fb4d2; stroke:none;" d="M178.667 350.333L179.333 350.667L178.667 350.333z"/>
<path style="fill:#657ba1; stroke:none;" d="M180.667 350.333L181.333 350.667L180.667 350.333z"/>
<path style="fill:#244172; stroke:none;" d="M183 350L183 351L188 351L183 350z"/>
<path style="fill:#9fb4d2; stroke:none;" d="M184.667 351.333L185.333 351.667L184.667 351.333z"/>
<path style="fill:#657ba1; stroke:none;" d="M186 351L187 352L186 351z"/>
<path style="fill:#244172; stroke:none;" d="M188 351L188 352L199 353L188 351z"/>
<path style="fill:#9fb4d2; stroke:none;" d="M189.667 352.333L190.333 352.667L189.667 352.333z"/>
<path style="fill:#657ba1; stroke:none;" d="M191.667 352.333L192.333 352.667L191.667 352.333z"/>
<path style="fill:#285396; stroke:none;" d="M193 352L194 353L193 352z"/>
<path style="fill:#9fb4d2; stroke:none;" d="M194.667 353.333L195.333 353.667L194.667 353.333z"/>
<path style="fill:#657ba1; stroke:none;" d="M196.667 353.333L197.333 353.667L196.667 353.333z"/>
<path style="fill:#244172; stroke:none;" d="M199 353L199 354L204 354L199 353z"/>
<path style="fill:#9fb4d2; stroke:none;" d="M200.667 354.333L201.333 354.667L200.667 354.333z"/>
<path style="fill:#657ba1; stroke:none;" d="M202 354L203 355L202 354z"/>
<path style="fill:#244172; stroke:none;" d="M204 354L204 355L210 355L204 354z"/>
<path style="fill:#9fb4d2; stroke:none;" d="M205.667 355.333L206.333 355.667L205.667 355.333z"/>
<path style="fill:#657ba1; stroke:none;" d="M207 355L208 356L207 355z"/>
<path style="fill:#9fb4d2; stroke:none;" d="M210 356L210 357L213 357L210 356z"/>
<path style="fill:#657ba1; stroke:none;" d="M213 356L214 357L213 356z"/>
<path style="fill:#285396; stroke:none;" d="M214 356L215 357L214 356z"/>
<path style="fill:#9fb4d2; stroke:none;" d="M215 357L216 358L215 357z"/>
</svg>
