<?xml version="1.0" standalone="no"?>
<!DOCTYPE svg PUBLIC "-//W3C//DTD SVG 20010904//EN"
 "http://www.w3.org/TR/2001/REC-SVG-20010904/DTD/svg10.dtd">
<svg version="1.0" xmlns="http://www.w3.org/2000/svg"
 width="800.000000pt" height="800.000000pt" viewBox="0 0 800.000000 800.000000"
 preserveAspectRatio="xMidYMid meet">

<g transform="translate(0.000000,800.000000) scale(0.100000,-0.100000)"
fill="#000000" stroke="none">
<path d="M0 4000 l0 -4000 4000 0 4000 0 0 4000 0 4000 -4000 0 -4000 0 0
-4000z m4336 2995 c396 -42 735 -145 1094 -331 416 -217 810 -567 1082 -964
703 -1025 703 -2375 0 -3400 -155 -226 -392 -482 -600 -648 -227 -181 -543
-363 -810 -466 -198 -77 -461 -142 -712 -178 -146 -20 -603 -17 -755 5 -357
53 -646 142 -943 291 -321 160 -569 342 -822 602 -151 156 -234 258 -345 424
-337 507 -505 1061 -505 1670 0 613 170 1173 511 1680 194 289 464 566 749
770 446 319 937 498 1520 553 102 10 407 5 536 -8z"/>
<path d="M2845 4800 l-800 -800 800 -800 800 -800 95 95 95 95 -635 635 -635
635 1585 2 1585 3 0 135 0 135 -1585 3 -1585 2 635 635 635 635 -95 95 -95 95
-800 -800z"/>
</g>
</svg>
